<mxfile host="Electron" modified="2025-01-10T18:32:58.860Z" agent="Mozilla/5.0 (Windows NT 10.0; Win64; x64) AppleWebKit/537.36 (KHTML, like Gecko) draw.io/24.0.4 Chrome/120.0.6099.109 Electron/28.1.0 Safari/537.36" etag="24zOVW1adT8w5rG2vRCY" version="24.0.4" type="device" pages="2">
  <diagram name="Варианты использования" id="MI1J2-CqYYGbUAztLc2I">
    <mxGraphModel dx="1713" dy="1186" grid="1" gridSize="10" guides="1" tooltips="1" connect="1" arrows="1" fold="1" page="0" pageScale="1" pageWidth="827" pageHeight="1169" math="0" shadow="0">
      <root>
        <mxCell id="0" />
        <mxCell id="1" parent="0" />
        <mxCell id="r9iq1MVezSwC2UUuFci2-1" value="" style="rounded=0;whiteSpace=wrap;html=1;" parent="1" vertex="1">
          <mxGeometry x="131" y="136" width="910" height="590" as="geometry" />
        </mxCell>
        <mxCell id="r9iq1MVezSwC2UUuFci2-33" style="rounded=0;orthogonalLoop=1;jettySize=auto;html=1;exitX=1;exitY=0.5;exitDx=0;exitDy=0;entryX=0;entryY=0.5;entryDx=0;entryDy=0;dashed=1;dashPattern=8 8;" parent="1" source="DE8UUsNk8c3EbBQs2PeT-8" target="r9iq1MVezSwC2UUuFci2-12" edge="1">
          <mxGeometry relative="1" as="geometry">
            <mxPoint x="479.9999999999998" y="360" as="sourcePoint" />
          </mxGeometry>
        </mxCell>
        <mxCell id="r9iq1MVezSwC2UUuFci2-36" value="Extends" style="edgeLabel;html=1;align=center;verticalAlign=middle;resizable=0;points=[];fontSize=15;" parent="r9iq1MVezSwC2UUuFci2-33" vertex="1" connectable="0">
          <mxGeometry x="0.0003" y="3" relative="1" as="geometry">
            <mxPoint as="offset" />
          </mxGeometry>
        </mxCell>
        <mxCell id="r9iq1MVezSwC2UUuFci2-8" value="&lt;font style=&quot;font-size: 18px;&quot;&gt;Исследование пользовательского опыта&lt;/font&gt;" style="ellipse;whiteSpace=wrap;html=1;fontSize=18;" parent="1" vertex="1">
          <mxGeometry x="226" y="440" width="264" height="70" as="geometry" />
        </mxCell>
        <mxCell id="r9iq1MVezSwC2UUuFci2-10" value="&lt;font style=&quot;font-size: 18px;&quot;&gt;Выявление аномалий&lt;/font&gt;" style="ellipse;whiteSpace=wrap;html=1;fontSize=18;" parent="1" vertex="1">
          <mxGeometry x="718" y="330" width="244" height="60" as="geometry" />
        </mxCell>
        <mxCell id="r9iq1MVezSwC2UUuFci2-11" value="&lt;font style=&quot;font-size: 18px;&quot;&gt;Сравнение периодов и когорт&lt;/font&gt;" style="ellipse;whiteSpace=wrap;html=1;fontSize=18;" parent="1" vertex="1">
          <mxGeometry x="710" y="260" width="244" height="60" as="geometry" />
        </mxCell>
        <mxCell id="r9iq1MVezSwC2UUuFci2-12" value="&lt;font style=&quot;font-size: 18px;&quot;&gt;Изучение динамики&lt;/font&gt;" style="ellipse;whiteSpace=wrap;html=1;fontSize=18;" parent="1" vertex="1">
          <mxGeometry x="710" y="180" width="244" height="60" as="geometry" />
        </mxCell>
        <mxCell id="r9iq1MVezSwC2UUuFci2-13" value="&lt;font style=&quot;font-size: 18px;&quot;&gt;Изучение статистики посещений&lt;/font&gt;" style="ellipse;whiteSpace=wrap;html=1;fontSize=18;" parent="1" vertex="1">
          <mxGeometry x="710" y="610" width="260" height="60" as="geometry" />
        </mxCell>
        <mxCell id="r9iq1MVezSwC2UUuFci2-14" value="&lt;font style=&quot;font-size: 18px;&quot;&gt;Выявление шаблонов поведения&lt;/font&gt;" style="ellipse;whiteSpace=wrap;html=1;fontSize=18;" parent="1" vertex="1">
          <mxGeometry x="710" y="530" width="260" height="60" as="geometry" />
        </mxCell>
        <mxCell id="r9iq1MVezSwC2UUuFci2-15" value="&lt;font style=&quot;font-size: 18px;&quot;&gt;Анализ частотности сценариев&lt;/font&gt;" style="ellipse;whiteSpace=wrap;html=1;fontSize=18;" parent="1" vertex="1">
          <mxGeometry x="710" y="450" width="260" height="60" as="geometry" />
        </mxCell>
        <mxCell id="r9iq1MVezSwC2UUuFci2-26" style="rounded=0;orthogonalLoop=1;jettySize=auto;html=1;exitX=0.5;exitY=0.5;exitDx=0;exitDy=0;exitPerimeter=0;entryX=0;entryY=0.5;entryDx=0;entryDy=0;" parent="1" source="r9iq1MVezSwC2UUuFci2-25" target="DE8UUsNk8c3EbBQs2PeT-5" edge="1">
          <mxGeometry relative="1" as="geometry">
            <mxPoint x="230" y="180" as="targetPoint" />
          </mxGeometry>
        </mxCell>
        <mxCell id="r9iq1MVezSwC2UUuFci2-27" style="rounded=0;orthogonalLoop=1;jettySize=auto;html=1;exitX=0.5;exitY=0.5;exitDx=0;exitDy=0;exitPerimeter=0;entryX=0;entryY=0.5;entryDx=0;entryDy=0;" parent="1" source="r9iq1MVezSwC2UUuFci2-25" target="DE8UUsNk8c3EbBQs2PeT-8" edge="1">
          <mxGeometry relative="1" as="geometry">
            <mxPoint x="219.5" y="360" as="targetPoint" />
          </mxGeometry>
        </mxCell>
        <mxCell id="r9iq1MVezSwC2UUuFci2-28" style="rounded=0;orthogonalLoop=1;jettySize=auto;html=1;exitX=0.5;exitY=0.5;exitDx=0;exitDy=0;exitPerimeter=0;entryX=0;entryY=0.5;entryDx=0;entryDy=0;" parent="1" source="r9iq1MVezSwC2UUuFci2-25" target="r9iq1MVezSwC2UUuFci2-8" edge="1">
          <mxGeometry relative="1" as="geometry" />
        </mxCell>
        <mxCell id="r9iq1MVezSwC2UUuFci2-29" style="rounded=0;orthogonalLoop=1;jettySize=auto;html=1;exitX=0.5;exitY=0.5;exitDx=0;exitDy=0;exitPerimeter=0;entryX=0;entryY=0.5;entryDx=0;entryDy=0;" parent="1" source="r9iq1MVezSwC2UUuFci2-25" target="DE8UUsNk8c3EbBQs2PeT-10" edge="1">
          <mxGeometry relative="1" as="geometry">
            <mxPoint x="216.9999999999999" y="675" as="targetPoint" />
          </mxGeometry>
        </mxCell>
        <mxCell id="DE8UUsNk8c3EbBQs2PeT-3" style="rounded=0;orthogonalLoop=1;jettySize=auto;html=1;exitX=0.5;exitY=0.5;exitDx=0;exitDy=0;exitPerimeter=0;entryX=0;entryY=0.5;entryDx=0;entryDy=0;" parent="1" source="r9iq1MVezSwC2UUuFci2-25" target="DE8UUsNk8c3EbBQs2PeT-6" edge="1">
          <mxGeometry relative="1" as="geometry">
            <mxPoint x="230" y="270" as="targetPoint" />
          </mxGeometry>
        </mxCell>
        <mxCell id="DE8UUsNk8c3EbBQs2PeT-4" style="rounded=0;orthogonalLoop=1;jettySize=auto;html=1;exitX=0.5;exitY=0.5;exitDx=0;exitDy=0;exitPerimeter=0;entryX=0;entryY=0.5;entryDx=0;entryDy=0;" parent="1" source="r9iq1MVezSwC2UUuFci2-25" target="DE8UUsNk8c3EbBQs2PeT-9" edge="1">
          <mxGeometry relative="1" as="geometry">
            <mxPoint x="216.99999999999886" y="585" as="targetPoint" />
          </mxGeometry>
        </mxCell>
        <mxCell id="r9iq1MVezSwC2UUuFci2-25" value="Пользователь" style="shape=umlActor;verticalLabelPosition=bottom;verticalAlign=top;html=1;outlineConnect=0;" parent="1" vertex="1">
          <mxGeometry x="-24" y="375" width="30" height="60" as="geometry" />
        </mxCell>
        <mxCell id="r9iq1MVezSwC2UUuFci2-40" style="rounded=0;orthogonalLoop=1;jettySize=auto;html=1;exitX=1;exitY=0.5;exitDx=0;exitDy=0;entryX=0;entryY=0.5;entryDx=0;entryDy=0;dashed=1;dashPattern=8 8;" parent="1" source="DE8UUsNk8c3EbBQs2PeT-8" target="r9iq1MVezSwC2UUuFci2-11" edge="1">
          <mxGeometry relative="1" as="geometry">
            <mxPoint x="479.9999999999998" y="360" as="sourcePoint" />
            <mxPoint x="750" y="292.5" as="targetPoint" />
          </mxGeometry>
        </mxCell>
        <mxCell id="r9iq1MVezSwC2UUuFci2-41" value="Extends" style="edgeLabel;html=1;align=center;verticalAlign=middle;resizable=0;points=[];fontSize=15;" parent="r9iq1MVezSwC2UUuFci2-40" vertex="1" connectable="0">
          <mxGeometry x="0.0003" y="3" relative="1" as="geometry">
            <mxPoint as="offset" />
          </mxGeometry>
        </mxCell>
        <mxCell id="r9iq1MVezSwC2UUuFci2-42" style="rounded=0;orthogonalLoop=1;jettySize=auto;html=1;exitX=1;exitY=0.5;exitDx=0;exitDy=0;entryX=0;entryY=0.5;entryDx=0;entryDy=0;dashed=1;dashPattern=8 8;" parent="1" source="DE8UUsNk8c3EbBQs2PeT-8" target="r9iq1MVezSwC2UUuFci2-10" edge="1">
          <mxGeometry relative="1" as="geometry">
            <mxPoint x="479.9999999999998" y="360" as="sourcePoint" />
            <mxPoint x="730" y="230" as="targetPoint" />
          </mxGeometry>
        </mxCell>
        <mxCell id="r9iq1MVezSwC2UUuFci2-43" value="Extends" style="edgeLabel;html=1;align=center;verticalAlign=middle;resizable=0;points=[];fontSize=15;" parent="r9iq1MVezSwC2UUuFci2-42" vertex="1" connectable="0">
          <mxGeometry x="0.0003" y="3" relative="1" as="geometry">
            <mxPoint as="offset" />
          </mxGeometry>
        </mxCell>
        <mxCell id="r9iq1MVezSwC2UUuFci2-44" style="rounded=0;orthogonalLoop=1;jettySize=auto;html=1;exitX=1;exitY=0.5;exitDx=0;exitDy=0;entryX=0;entryY=0.5;entryDx=0;entryDy=0;dashed=1;dashPattern=8 8;" parent="1" source="r9iq1MVezSwC2UUuFci2-8" target="r9iq1MVezSwC2UUuFci2-15" edge="1">
          <mxGeometry relative="1" as="geometry">
            <mxPoint x="510" y="390" as="sourcePoint" />
            <mxPoint x="740" y="240" as="targetPoint" />
          </mxGeometry>
        </mxCell>
        <mxCell id="r9iq1MVezSwC2UUuFci2-45" value="Extends" style="edgeLabel;html=1;align=center;verticalAlign=middle;resizable=0;points=[];fontSize=15;" parent="r9iq1MVezSwC2UUuFci2-44" vertex="1" connectable="0">
          <mxGeometry x="0.0003" y="3" relative="1" as="geometry">
            <mxPoint as="offset" />
          </mxGeometry>
        </mxCell>
        <mxCell id="r9iq1MVezSwC2UUuFci2-46" style="rounded=0;orthogonalLoop=1;jettySize=auto;html=1;exitX=1;exitY=0.5;exitDx=0;exitDy=0;entryX=0;entryY=0.5;entryDx=0;entryDy=0;dashed=1;dashPattern=8 8;" parent="1" source="r9iq1MVezSwC2UUuFci2-8" target="r9iq1MVezSwC2UUuFci2-14" edge="1">
          <mxGeometry relative="1" as="geometry">
            <mxPoint x="520" y="400" as="sourcePoint" />
            <mxPoint x="750" y="250" as="targetPoint" />
          </mxGeometry>
        </mxCell>
        <mxCell id="r9iq1MVezSwC2UUuFci2-47" value="Extends" style="edgeLabel;html=1;align=center;verticalAlign=middle;resizable=0;points=[];fontSize=15;" parent="r9iq1MVezSwC2UUuFci2-46" vertex="1" connectable="0">
          <mxGeometry x="0.0003" y="3" relative="1" as="geometry">
            <mxPoint as="offset" />
          </mxGeometry>
        </mxCell>
        <mxCell id="r9iq1MVezSwC2UUuFci2-48" style="rounded=0;orthogonalLoop=1;jettySize=auto;html=1;exitX=1;exitY=0.5;exitDx=0;exitDy=0;entryX=0;entryY=0.5;entryDx=0;entryDy=0;dashed=1;dashPattern=8 8;" parent="1" source="r9iq1MVezSwC2UUuFci2-8" target="r9iq1MVezSwC2UUuFci2-13" edge="1">
          <mxGeometry relative="1" as="geometry">
            <mxPoint x="530" y="410" as="sourcePoint" />
            <mxPoint x="760" y="260" as="targetPoint" />
          </mxGeometry>
        </mxCell>
        <mxCell id="r9iq1MVezSwC2UUuFci2-49" value="Extends" style="edgeLabel;html=1;align=center;verticalAlign=middle;resizable=0;points=[];fontSize=15;" parent="r9iq1MVezSwC2UUuFci2-48" vertex="1" connectable="0">
          <mxGeometry x="0.0003" y="3" relative="1" as="geometry">
            <mxPoint as="offset" />
          </mxGeometry>
        </mxCell>
        <mxCell id="DE8UUsNk8c3EbBQs2PeT-5" value="&lt;font style=&quot;font-size: 18px;&quot;&gt;Подготовка данных&lt;/font&gt;" style="ellipse;whiteSpace=wrap;html=1;fontSize=18;" parent="1" vertex="1">
          <mxGeometry x="226" y="152" width="264" height="70" as="geometry" />
        </mxCell>
        <mxCell id="DE8UUsNk8c3EbBQs2PeT-6" value="&lt;font style=&quot;font-size: 18px;&quot;&gt;Сегментация пользователей&lt;/font&gt;" style="ellipse;whiteSpace=wrap;html=1;fontSize=18;" parent="1" vertex="1">
          <mxGeometry x="226" y="237" width="264" height="70" as="geometry" />
        </mxCell>
        <mxCell id="DE8UUsNk8c3EbBQs2PeT-8" value="&lt;font style=&quot;font-size: 18px;&quot;&gt;Анализ продуктовых метрик&lt;/font&gt;" style="ellipse;whiteSpace=wrap;html=1;fontSize=18;" parent="1" vertex="1">
          <mxGeometry x="226" y="323" width="264" height="70" as="geometry" />
        </mxCell>
        <mxCell id="DE8UUsNk8c3EbBQs2PeT-9" value="&lt;font style=&quot;font-size: 18px;&quot;&gt;ДЛЯ СИММЕТРИИ&lt;/font&gt;" style="ellipse;whiteSpace=wrap;html=1;fontSize=18;" parent="1" vertex="1">
          <mxGeometry x="226" y="530" width="264" height="70" as="geometry" />
        </mxCell>
        <mxCell id="DE8UUsNk8c3EbBQs2PeT-10" value="&lt;font style=&quot;font-size: 18px;&quot;&gt;Анализ продуктовых воронок&lt;/font&gt;" style="ellipse;whiteSpace=wrap;html=1;fontSize=18;" parent="1" vertex="1">
          <mxGeometry x="226" y="620" width="264" height="70" as="geometry" />
        </mxCell>
        <mxCell id="NcdvtF8w-zkPBYR_3BZk-1" value="DataPreprocessor&lt;div&gt;&lt;br&gt;&lt;/div&gt;" style="swimlane;fontStyle=1;align=center;verticalAlign=top;childLayout=stackLayout;horizontal=1;startSize=26;horizontalStack=0;resizeParent=1;resizeParentMax=0;resizeLast=0;collapsible=1;marginBottom=0;whiteSpace=wrap;html=1;" parent="1" vertex="1">
          <mxGeometry x="-360" y="167" width="210" height="86" as="geometry" />
        </mxCell>
        <mxCell id="NcdvtF8w-zkPBYR_3BZk-2" value="+ params:&amp;nbsp;" style="text;strokeColor=none;fillColor=none;align=left;verticalAlign=top;spacingLeft=4;spacingRight=4;overflow=hidden;rotatable=0;points=[[0,0.5],[1,0.5]];portConstraint=eastwest;whiteSpace=wrap;html=1;" parent="NcdvtF8w-zkPBYR_3BZk-1" vertex="1">
          <mxGeometry y="26" width="210" height="26" as="geometry" />
        </mxCell>
        <mxCell id="NcdvtF8w-zkPBYR_3BZk-3" value="" style="line;strokeWidth=1;fillColor=none;align=left;verticalAlign=middle;spacingTop=-1;spacingLeft=3;spacingRight=3;rotatable=0;labelPosition=right;points=[];portConstraint=eastwest;strokeColor=inherit;" parent="NcdvtF8w-zkPBYR_3BZk-1" vertex="1">
          <mxGeometry y="52" width="210" height="8" as="geometry" />
        </mxCell>
        <mxCell id="NcdvtF8w-zkPBYR_3BZk-4" value="+ apply(df): df" style="text;strokeColor=none;fillColor=none;align=left;verticalAlign=top;spacingLeft=4;spacingRight=4;overflow=hidden;rotatable=0;points=[[0,0.5],[1,0.5]];portConstraint=eastwest;whiteSpace=wrap;html=1;" parent="NcdvtF8w-zkPBYR_3BZk-1" vertex="1">
          <mxGeometry y="60" width="210" height="26" as="geometry" />
        </mxCell>
        <mxCell id="fN45uCllA25SNhMF04AW-1" value="&lt;div&gt;ClusterAnalyzer&lt;/div&gt;" style="swimlane;fontStyle=1;align=center;verticalAlign=top;childLayout=stackLayout;horizontal=1;startSize=26;horizontalStack=0;resizeParent=1;resizeParentMax=0;resizeLast=0;collapsible=1;marginBottom=0;whiteSpace=wrap;html=1;" parent="1" vertex="1">
          <mxGeometry x="-360" y="323" width="210" height="138" as="geometry" />
        </mxCell>
        <mxCell id="fN45uCllA25SNhMF04AW-2" value="+ :&amp;nbsp;" style="text;strokeColor=none;fillColor=none;align=left;verticalAlign=top;spacingLeft=4;spacingRight=4;overflow=hidden;rotatable=0;points=[[0,0.5],[1,0.5]];portConstraint=eastwest;whiteSpace=wrap;html=1;" parent="fN45uCllA25SNhMF04AW-1" vertex="1">
          <mxGeometry y="26" width="210" height="26" as="geometry" />
        </mxCell>
        <mxCell id="fN45uCllA25SNhMF04AW-3" value="" style="line;strokeWidth=1;fillColor=none;align=left;verticalAlign=middle;spacingTop=-1;spacingLeft=3;spacingRight=3;rotatable=0;labelPosition=right;points=[];portConstraint=eastwest;strokeColor=inherit;" parent="fN45uCllA25SNhMF04AW-1" vertex="1">
          <mxGeometry y="52" width="210" height="8" as="geometry" />
        </mxCell>
        <mxCell id="fN45uCllA25SNhMF04AW-4" value="+ add_meta_info(df): df" style="text;strokeColor=none;fillColor=none;align=left;verticalAlign=top;spacingLeft=4;spacingRight=4;overflow=hidden;rotatable=0;points=[[0,0.5],[1,0.5]];portConstraint=eastwest;whiteSpace=wrap;html=1;" parent="fN45uCllA25SNhMF04AW-1" vertex="1">
          <mxGeometry y="60" width="210" height="26" as="geometry" />
        </mxCell>
        <mxCell id="fN45uCllA25SNhMF04AW-5" value="+ fit(df): None" style="text;strokeColor=none;fillColor=none;align=left;verticalAlign=top;spacingLeft=4;spacingRight=4;overflow=hidden;rotatable=0;points=[[0,0.5],[1,0.5]];portConstraint=eastwest;whiteSpace=wrap;html=1;" parent="fN45uCllA25SNhMF04AW-1" vertex="1">
          <mxGeometry y="86" width="210" height="26" as="geometry" />
        </mxCell>
        <mxCell id="fN45uCllA25SNhMF04AW-6" value="+ describe_result(df): df" style="text;strokeColor=none;fillColor=none;align=left;verticalAlign=top;spacingLeft=4;spacingRight=4;overflow=hidden;rotatable=0;points=[[0,0.5],[1,0.5]];portConstraint=eastwest;whiteSpace=wrap;html=1;" parent="fN45uCllA25SNhMF04AW-1" vertex="1">
          <mxGeometry y="112" width="210" height="26" as="geometry" />
        </mxCell>
        <mxCell id="fN45uCllA25SNhMF04AW-7" value="&lt;div&gt;Funnel&lt;/div&gt;" style="swimlane;fontStyle=1;align=center;verticalAlign=top;childLayout=stackLayout;horizontal=1;startSize=26;horizontalStack=0;resizeParent=1;resizeParentMax=0;resizeLast=0;collapsible=1;marginBottom=0;whiteSpace=wrap;html=1;" parent="1" vertex="1">
          <mxGeometry x="-360" y="500" width="210" height="112" as="geometry" />
        </mxCell>
        <mxCell id="fN45uCllA25SNhMF04AW-8" value="+ compute_method:&amp;nbsp;" style="text;strokeColor=none;fillColor=none;align=left;verticalAlign=top;spacingLeft=4;spacingRight=4;overflow=hidden;rotatable=0;points=[[0,0.5],[1,0.5]];portConstraint=eastwest;whiteSpace=wrap;html=1;" parent="fN45uCllA25SNhMF04AW-7" vertex="1">
          <mxGeometry y="26" width="210" height="26" as="geometry" />
        </mxCell>
        <mxCell id="fN45uCllA25SNhMF04AW-9" value="" style="line;strokeWidth=1;fillColor=none;align=left;verticalAlign=middle;spacingTop=-1;spacingLeft=3;spacingRight=3;rotatable=0;labelPosition=right;points=[];portConstraint=eastwest;strokeColor=inherit;" parent="fN45uCllA25SNhMF04AW-7" vertex="1">
          <mxGeometry y="52" width="210" height="8" as="geometry" />
        </mxCell>
        <mxCell id="fN45uCllA25SNhMF04AW-11" value="+ fit(df): None" style="text;strokeColor=none;fillColor=none;align=left;verticalAlign=top;spacingLeft=4;spacingRight=4;overflow=hidden;rotatable=0;points=[[0,0.5],[1,0.5]];portConstraint=eastwest;whiteSpace=wrap;html=1;" parent="fN45uCllA25SNhMF04AW-7" vertex="1">
          <mxGeometry y="60" width="210" height="26" as="geometry" />
        </mxCell>
        <mxCell id="fN45uCllA25SNhMF04AW-12" value="+ plot(df): None" style="text;strokeColor=none;fillColor=none;align=left;verticalAlign=top;spacingLeft=4;spacingRight=4;overflow=hidden;rotatable=0;points=[[0,0.5],[1,0.5]];portConstraint=eastwest;whiteSpace=wrap;html=1;" parent="fN45uCllA25SNhMF04AW-7" vertex="1">
          <mxGeometry y="86" width="210" height="26" as="geometry" />
        </mxCell>
        <mxCell id="fN45uCllA25SNhMF04AW-13" value="&lt;div&gt;Metric&lt;/div&gt;" style="swimlane;fontStyle=1;align=center;verticalAlign=top;childLayout=stackLayout;horizontal=1;startSize=26;horizontalStack=0;resizeParent=1;resizeParentMax=0;resizeLast=0;collapsible=1;marginBottom=0;whiteSpace=wrap;html=1;" parent="1" vertex="1">
          <mxGeometry x="1300" y="136" width="210" height="164" as="geometry" />
        </mxCell>
        <mxCell id="fN45uCllA25SNhMF04AW-14" value="+ formula:&amp;nbsp;" style="text;strokeColor=none;fillColor=none;align=left;verticalAlign=top;spacingLeft=4;spacingRight=4;overflow=hidden;rotatable=0;points=[[0,0.5],[1,0.5]];portConstraint=eastwest;whiteSpace=wrap;html=1;" parent="fN45uCllA25SNhMF04AW-13" vertex="1">
          <mxGeometry y="26" width="210" height="26" as="geometry" />
        </mxCell>
        <mxCell id="fN45uCllA25SNhMF04AW-19" value="+ split_cols" style="text;strokeColor=none;fillColor=none;align=left;verticalAlign=top;spacingLeft=4;spacingRight=4;overflow=hidden;rotatable=0;points=[[0,0.5],[1,0.5]];portConstraint=eastwest;whiteSpace=wrap;html=1;" parent="fN45uCllA25SNhMF04AW-13" vertex="1">
          <mxGeometry y="52" width="210" height="26" as="geometry" />
        </mxCell>
        <mxCell id="fN45uCllA25SNhMF04AW-15" value="" style="line;strokeWidth=1;fillColor=none;align=left;verticalAlign=middle;spacingTop=-1;spacingLeft=3;spacingRight=3;rotatable=0;labelPosition=right;points=[];portConstraint=eastwest;strokeColor=inherit;" parent="fN45uCllA25SNhMF04AW-13" vertex="1">
          <mxGeometry y="78" width="210" height="8" as="geometry" />
        </mxCell>
        <mxCell id="fN45uCllA25SNhMF04AW-16" value="+ compute(df): df" style="text;strokeColor=none;fillColor=none;align=left;verticalAlign=top;spacingLeft=4;spacingRight=4;overflow=hidden;rotatable=0;points=[[0,0.5],[1,0.5]];portConstraint=eastwest;whiteSpace=wrap;html=1;" parent="fN45uCllA25SNhMF04AW-13" vertex="1">
          <mxGeometry y="86" width="210" height="26" as="geometry" />
        </mxCell>
        <mxCell id="fN45uCllA25SNhMF04AW-17" value="+ fit(df): None" style="text;strokeColor=none;fillColor=none;align=left;verticalAlign=top;spacingLeft=4;spacingRight=4;overflow=hidden;rotatable=0;points=[[0,0.5],[1,0.5]];portConstraint=eastwest;whiteSpace=wrap;html=1;" parent="fN45uCllA25SNhMF04AW-13" vertex="1">
          <mxGeometry y="112" width="210" height="26" as="geometry" />
        </mxCell>
        <mxCell id="fN45uCllA25SNhMF04AW-18" value="+ describe_result(df): df" style="text;strokeColor=none;fillColor=none;align=left;verticalAlign=top;spacingLeft=4;spacingRight=4;overflow=hidden;rotatable=0;points=[[0,0.5],[1,0.5]];portConstraint=eastwest;whiteSpace=wrap;html=1;" parent="fN45uCllA25SNhMF04AW-13" vertex="1">
          <mxGeometry y="138" width="210" height="26" as="geometry" />
        </mxCell>
        <mxCell id="6OuVmEF2wMcvrHMAtNHj-1" value="&lt;div&gt;ColumnsSplitter&lt;/div&gt;" style="swimlane;fontStyle=1;align=center;verticalAlign=top;childLayout=stackLayout;horizontal=1;startSize=26;horizontalStack=0;resizeParent=1;resizeParentMax=0;resizeLast=0;collapsible=1;marginBottom=0;whiteSpace=wrap;html=1;" parent="1" vertex="1">
          <mxGeometry x="1630" y="138" width="210" height="86" as="geometry" />
        </mxCell>
        <mxCell id="6OuVmEF2wMcvrHMAtNHj-3" value="+ split_cols" style="text;strokeColor=none;fillColor=none;align=left;verticalAlign=top;spacingLeft=4;spacingRight=4;overflow=hidden;rotatable=0;points=[[0,0.5],[1,0.5]];portConstraint=eastwest;whiteSpace=wrap;html=1;" parent="6OuVmEF2wMcvrHMAtNHj-1" vertex="1">
          <mxGeometry y="26" width="210" height="26" as="geometry" />
        </mxCell>
        <mxCell id="6OuVmEF2wMcvrHMAtNHj-4" value="" style="line;strokeWidth=1;fillColor=none;align=left;verticalAlign=middle;spacingTop=-1;spacingLeft=3;spacingRight=3;rotatable=0;labelPosition=right;points=[];portConstraint=eastwest;strokeColor=inherit;" parent="6OuVmEF2wMcvrHMAtNHj-1" vertex="1">
          <mxGeometry y="52" width="210" height="8" as="geometry" />
        </mxCell>
        <mxCell id="6OuVmEF2wMcvrHMAtNHj-5" value="+ split(): List" style="text;strokeColor=none;fillColor=none;align=left;verticalAlign=top;spacingLeft=4;spacingRight=4;overflow=hidden;rotatable=0;points=[[0,0.5],[1,0.5]];portConstraint=eastwest;whiteSpace=wrap;html=1;" parent="6OuVmEF2wMcvrHMAtNHj-1" vertex="1">
          <mxGeometry y="60" width="210" height="26" as="geometry" />
        </mxCell>
        <mxCell id="9wTcS0zKmHYvsmKBRYGw-1" value="&lt;div&gt;EventFrame&lt;/div&gt;" style="swimlane;fontStyle=1;align=center;verticalAlign=top;childLayout=stackLayout;horizontal=1;startSize=26;horizontalStack=0;resizeParent=1;resizeParentMax=0;resizeLast=0;collapsible=1;marginBottom=0;whiteSpace=wrap;html=1;" vertex="1" parent="1">
          <mxGeometry x="410" y="-230" width="279" height="112" as="geometry" />
        </mxCell>
        <mxCell id="9wTcS0zKmHYvsmKBRYGw-2" value="+ data: DataFrame&lt;span style=&quot;background-color: initial;&quot;&gt;&amp;nbsp;&lt;/span&gt;" style="text;strokeColor=none;fillColor=none;align=left;verticalAlign=top;spacingLeft=4;spacingRight=4;overflow=hidden;rotatable=0;points=[[0,0.5],[1,0.5]];portConstraint=eastwest;whiteSpace=wrap;html=1;" vertex="1" parent="9wTcS0zKmHYvsmKBRYGw-1">
          <mxGeometry y="26" width="279" height="26" as="geometry" />
        </mxCell>
        <mxCell id="9wTcS0zKmHYvsmKBRYGw-5" value="+ col_schema: Dict" style="text;strokeColor=none;fillColor=none;align=left;verticalAlign=top;spacingLeft=4;spacingRight=4;overflow=hidden;rotatable=0;points=[[0,0.5],[1,0.5]];portConstraint=eastwest;whiteSpace=wrap;html=1;" vertex="1" parent="9wTcS0zKmHYvsmKBRYGw-1">
          <mxGeometry y="52" width="279" height="26" as="geometry" />
        </mxCell>
        <mxCell id="9wTcS0zKmHYvsmKBRYGw-3" value="" style="line;strokeWidth=1;fillColor=none;align=left;verticalAlign=middle;spacingTop=-1;spacingLeft=3;spacingRight=3;rotatable=0;labelPosition=right;points=[];portConstraint=eastwest;strokeColor=inherit;" vertex="1" parent="9wTcS0zKmHYvsmKBRYGw-1">
          <mxGeometry y="78" width="279" height="8" as="geometry" />
        </mxCell>
        <mxCell id="9wTcS0zKmHYvsmKBRYGw-4" value="+ filter(inplace=False, **kwargs): EventFrame" style="text;strokeColor=none;fillColor=none;align=left;verticalAlign=top;spacingLeft=4;spacingRight=4;overflow=hidden;rotatable=0;points=[[0,0.5],[1,0.5]];portConstraint=eastwest;whiteSpace=wrap;html=1;" vertex="1" parent="9wTcS0zKmHYvsmKBRYGw-1">
          <mxGeometry y="86" width="279" height="26" as="geometry" />
        </mxCell>
        <mxCell id="9wTcS0zKmHYvsmKBRYGw-8" value="&lt;div&gt;MetricDinamic&lt;/div&gt;" style="swimlane;fontStyle=1;align=center;verticalAlign=top;childLayout=stackLayout;horizontal=1;startSize=26;horizontalStack=0;resizeParent=1;resizeParentMax=0;resizeLast=0;collapsible=1;marginBottom=0;whiteSpace=wrap;html=1;" vertex="1" parent="1">
          <mxGeometry x="1450" y="366" width="210" height="60" as="geometry" />
        </mxCell>
        <mxCell id="9wTcS0zKmHYvsmKBRYGw-9" value="+ period: DinamicPeriod&amp;nbsp;" style="text;strokeColor=none;fillColor=none;align=left;verticalAlign=top;spacingLeft=4;spacingRight=4;overflow=hidden;rotatable=0;points=[[0,0.5],[1,0.5]];portConstraint=eastwest;whiteSpace=wrap;html=1;" vertex="1" parent="9wTcS0zKmHYvsmKBRYGw-8">
          <mxGeometry y="26" width="210" height="26" as="geometry" />
        </mxCell>
        <mxCell id="9wTcS0zKmHYvsmKBRYGw-11" value="" style="line;strokeWidth=1;fillColor=none;align=left;verticalAlign=middle;spacingTop=-1;spacingLeft=3;spacingRight=3;rotatable=0;labelPosition=right;points=[];portConstraint=eastwest;strokeColor=inherit;" vertex="1" parent="9wTcS0zKmHYvsmKBRYGw-8">
          <mxGeometry y="52" width="210" height="8" as="geometry" />
        </mxCell>
        <mxCell id="9wTcS0zKmHYvsmKBRYGw-15" value="&lt;p style=&quot;margin:0px;margin-top:4px;text-align:center;&quot;&gt;&lt;br&gt;&lt;span style=&quot;text-align: left;&quot;&gt;DinamicPeriod&amp;nbsp;&lt;/span&gt;&lt;br&gt;&lt;/p&gt;" style="verticalAlign=top;align=left;overflow=fill;html=1;whiteSpace=wrap;" vertex="1" parent="1">
          <mxGeometry x="1690" y="300" width="140" height="60" as="geometry" />
        </mxCell>
        <mxCell id="9wTcS0zKmHYvsmKBRYGw-16" value="&lt;div&gt;MetricKPI&lt;/div&gt;" style="swimlane;fontStyle=1;align=center;verticalAlign=top;childLayout=stackLayout;horizontal=1;startSize=26;horizontalStack=0;resizeParent=1;resizeParentMax=0;resizeLast=0;collapsible=1;marginBottom=0;whiteSpace=wrap;html=1;" vertex="1" parent="1">
          <mxGeometry x="1180" y="366" width="210" height="34" as="geometry" />
        </mxCell>
        <mxCell id="9wTcS0zKmHYvsmKBRYGw-18" value="" style="line;strokeWidth=1;fillColor=none;align=left;verticalAlign=middle;spacingTop=-1;spacingLeft=3;spacingRight=3;rotatable=0;labelPosition=right;points=[];portConstraint=eastwest;strokeColor=inherit;" vertex="1" parent="9wTcS0zKmHYvsmKBRYGw-16">
          <mxGeometry y="26" width="210" height="8" as="geometry" />
        </mxCell>
        <mxCell id="9wTcS0zKmHYvsmKBRYGw-19" value="&lt;div&gt;Plotter&lt;/div&gt;" style="swimlane;fontStyle=1;align=center;verticalAlign=top;childLayout=stackLayout;horizontal=1;startSize=26;horizontalStack=0;resizeParent=1;resizeParentMax=0;resizeLast=0;collapsible=1;marginBottom=0;whiteSpace=wrap;html=1;" vertex="1" parent="1">
          <mxGeometry x="970" y="-190" width="210" height="190" as="geometry" />
        </mxCell>
        <mxCell id="9wTcS0zKmHYvsmKBRYGw-20" value="+ dinamic_metric: MetricDinamic&amp;nbsp;" style="text;strokeColor=none;fillColor=none;align=left;verticalAlign=top;spacingLeft=4;spacingRight=4;overflow=hidden;rotatable=0;points=[[0,0.5],[1,0.5]];portConstraint=eastwest;whiteSpace=wrap;html=1;" vertex="1" parent="9wTcS0zKmHYvsmKBRYGw-19">
          <mxGeometry y="26" width="210" height="26" as="geometry" />
        </mxCell>
        <mxCell id="9wTcS0zKmHYvsmKBRYGw-21" value="+ split_cols" style="text;strokeColor=none;fillColor=none;align=left;verticalAlign=top;spacingLeft=4;spacingRight=4;overflow=hidden;rotatable=0;points=[[0,0.5],[1,0.5]];portConstraint=eastwest;whiteSpace=wrap;html=1;" vertex="1" parent="9wTcS0zKmHYvsmKBRYGw-19">
          <mxGeometry y="52" width="210" height="26" as="geometry" />
        </mxCell>
        <mxCell id="9wTcS0zKmHYvsmKBRYGw-26" value="+ cols_names" style="text;strokeColor=none;fillColor=none;align=left;verticalAlign=top;spacingLeft=4;spacingRight=4;overflow=hidden;rotatable=0;points=[[0,0.5],[1,0.5]];portConstraint=eastwest;whiteSpace=wrap;html=1;" vertex="1" parent="9wTcS0zKmHYvsmKBRYGw-19">
          <mxGeometry y="78" width="210" height="26" as="geometry" />
        </mxCell>
        <mxCell id="9wTcS0zKmHYvsmKBRYGw-22" value="" style="line;strokeWidth=1;fillColor=none;align=left;verticalAlign=middle;spacingTop=-1;spacingLeft=3;spacingRight=3;rotatable=0;labelPosition=right;points=[];portConstraint=eastwest;strokeColor=inherit;" vertex="1" parent="9wTcS0zKmHYvsmKBRYGw-19">
          <mxGeometry y="104" width="210" height="8" as="geometry" />
        </mxCell>
        <mxCell id="9wTcS0zKmHYvsmKBRYGw-23" value="+ plot_dinamic(mode: string): None" style="text;strokeColor=none;fillColor=none;align=left;verticalAlign=top;spacingLeft=4;spacingRight=4;overflow=hidden;rotatable=0;points=[[0,0.5],[1,0.5]];portConstraint=eastwest;whiteSpace=wrap;html=1;" vertex="1" parent="9wTcS0zKmHYvsmKBRYGw-19">
          <mxGeometry y="112" width="210" height="26" as="geometry" />
        </mxCell>
        <mxCell id="9wTcS0zKmHYvsmKBRYGw-24" value="+ fit(df): None" style="text;strokeColor=none;fillColor=none;align=left;verticalAlign=top;spacingLeft=4;spacingRight=4;overflow=hidden;rotatable=0;points=[[0,0.5],[1,0.5]];portConstraint=eastwest;whiteSpace=wrap;html=1;" vertex="1" parent="9wTcS0zKmHYvsmKBRYGw-19">
          <mxGeometry y="138" width="210" height="26" as="geometry" />
        </mxCell>
        <mxCell id="9wTcS0zKmHYvsmKBRYGw-25" value="+ describe_result(df): df" style="text;strokeColor=none;fillColor=none;align=left;verticalAlign=top;spacingLeft=4;spacingRight=4;overflow=hidden;rotatable=0;points=[[0,0.5],[1,0.5]];portConstraint=eastwest;whiteSpace=wrap;html=1;" vertex="1" parent="9wTcS0zKmHYvsmKBRYGw-19">
          <mxGeometry y="164" width="210" height="26" as="geometry" />
        </mxCell>
      </root>
    </mxGraphModel>
  </diagram>
  <diagram id="6EsiE5rwYbKTbaEheUJe" name="Классы анализа">
    <mxGraphModel dx="3000" dy="1797" grid="1" gridSize="10" guides="1" tooltips="1" connect="1" arrows="1" fold="1" page="1" pageScale="1" pageWidth="827" pageHeight="1169" math="0" shadow="0">
      <root>
        <mxCell id="0" />
        <mxCell id="1" parent="0" />
      </root>
    </mxGraphModel>
  </diagram>
</mxfile>
